<svg xmlns="http://www.w3.org/2000/svg" width="512" height="512" viewBox="0 0 512 512">
  <defs>
    <linearGradient id="g" x1="0" x2="1">
      <stop offset="0" stop-color="#0ea5e9" />
      <stop offset="1" stop-color="#7c3aed" />
    </linearGradient>
  </defs>
  <rect width="100%" height="100%" rx="64" fill="url(#g)" />
  <g transform="translate(96,96) scale(0.625)" fill="#fff">
    <path d="M160 16C103.5 16 56 63.5 56 120s47.5 104 104 104 104-47.5 104-104S216.5 16 160 16zm0 160c-31.9 0-56-24.1-56-56s24.1-56 56-56 56 24.1 56 56-24.1 56-56 56z"/>
    <path d="M304 288H16c-8.8 0-16 7.2-16 16v48c0 17.7 14.3 32 32 32h272c17.7 0 32-14.3 32-32v-48c0-8.8-7.2-16-16-16z"/>
  </g>
</svg>
